<svg width="1392" height="215" viewBox="0 0 1392 215" fill="none" xmlns="http://www.w3.org/2000/svg">
<g clip-path="url(#clip0_2019_861)">
<path d="M1350.02 215C1341.47 215 1334.45 213.52 1328.93 210.58C1323.41 207.64 1319.13 203.375 1316.1 197.802C1313.07 192.23 1310.97 185.562 1309.76 177.761C1308.58 169.959 1307.98 161.255 1307.98 151.647H1340.16V159.929C1340.16 167.73 1340.67 174.398 1341.65 179.913C1342.63 185.428 1345.42 188.195 1350 188.195C1352.97 188.195 1355.16 186.83 1356.56 184.121C1357.94 181.412 1358.85 177.914 1359.25 173.629C1359.65 169.344 1359.85 164.886 1359.85 160.217V113.428C1359.85 108.951 1359.27 105.281 1358.15 102.379C1357 99.4776 1354.69 98.0365 1351.22 98.0365C1347.75 98.0365 1345.16 99.5545 1343.17 102.59C1341.19 105.646 1339.94 109.258 1339.44 113.428H1310.08V2.97852H1387.87V33.5116H1337.8V78.5906C1339.68 76.4001 1342.15 74.4401 1345.18 72.6723C1348.21 70.9045 1352.37 70.0398 1357.62 70.0398C1365.07 70.0398 1371.35 71.7692 1376.47 75.2472C1381.58 78.7251 1385.46 83.6827 1388.09 90.1582C1390.71 96.6338 1392.04 104.378 1392.04 113.409V160.198C1392.04 167.615 1391.42 174.629 1390.17 181.239C1388.93 187.849 1386.76 193.671 1383.69 198.724C1380.6 203.759 1376.35 207.736 1370.87 210.638C1365.41 213.539 1358.45 214.981 1350.02 214.981V215Z" fill="white" fill-opacity="0.5"/>
<path d="M42.9243 214.999C33.7936 214.999 26.0074 213.02 19.6059 209.081C13.2044 205.142 8.328 199.742 4.9968 192.883C1.6656 186.042 0 178.279 0 169.632V46.0587C0 37.5079 1.70573 29.8025 5.13727 22.9427C8.56881 16.1021 13.5054 10.6641 19.9671 6.68657C26.4289 2.68979 34.0746 0.691406 42.9043 0.691406C49.5667 0.691406 55.5267 1.88275 60.7844 4.26545C66.042 6.64814 70.5372 9.89552 74.2697 14.046C78.0023 18.1773 80.8518 22.9811 82.8385 28.4575C84.8252 33.9338 85.8085 39.7945 85.8085 46.0779V74.9008H55.7073V46.0779C55.7073 41.6968 54.7641 38.0459 52.8778 35.0867C50.9914 32.1468 47.8609 30.6672 43.4862 30.6672C39.5128 30.6672 36.6231 32.1852 34.8371 35.2405C33.0511 38.2765 32.1481 41.9082 32.1481 46.0779V169.632C32.1481 173.821 33.1113 177.433 35.0579 180.469C37.0044 183.505 39.7938 185.043 43.4862 185.043C47.9613 185.043 51.1118 183.563 52.9581 180.623C54.8043 177.683 55.7073 174.013 55.7073 169.632V140.809H85.8085V169.632C85.8085 178.183 84.0626 185.888 80.591 192.748C77.1193 199.589 72.1626 205.027 65.7611 209.004C59.3596 213.001 51.7339 214.999 42.8842 214.999H42.9243Z" fill="white" fill-opacity="0.2"/>
<path d="M143.654 214.999C134.724 214.999 127.038 213.001 120.637 209.004C114.235 205.007 109.319 199.588 105.887 192.748C102.456 185.907 100.75 178.202 100.75 169.632V46.0583C100.75 37.4115 102.456 29.6677 105.887 22.8655C109.319 16.0633 114.235 10.6638 120.637 6.66704C127.038 2.67026 134.724 0.671875 143.654 0.671875C152.584 0.671875 160.27 2.67026 166.672 6.66704C173.073 10.6638 177.99 16.0825 181.421 22.9232C184.853 29.7638 186.559 37.4691 186.559 46.0391V169.593C186.559 178.144 184.853 185.849 181.421 192.709C177.99 199.55 173.073 204.988 166.672 208.965C160.27 212.962 152.584 214.961 143.654 214.961V214.999ZM143.654 185.023C147.628 185.023 150.417 183.428 152.002 180.239C153.588 177.049 154.39 173.513 154.39 169.613V46.0583C154.39 42.1576 153.548 38.622 151.862 35.4323C150.176 32.2426 147.447 30.6477 143.674 30.6477C139.902 30.6477 137.293 32.2426 135.547 35.4323C133.801 38.622 132.938 42.1576 132.938 46.0583V169.613C132.938 173.513 133.781 177.049 135.467 180.239C137.152 183.428 139.882 185.023 143.654 185.023Z" fill="white" fill-opacity="0.2"/>
<path d="M202.93 212.713V2.97852H243.767L261.346 111.699L262.831 122.824H263.433L264.918 111.699L282.497 2.97852H323.314V212.713H293.514V72.0382H291.728L290.544 80.8772L271.48 212.713H254.784L235.72 80.8772L234.536 72.0382H232.75V212.713H202.95H202.93Z" fill="white" fill-opacity="0.2"/>
<path d="M341.227 212.713V2.97852H382.064L399.643 111.699L401.128 122.824H401.73L403.215 111.699L420.794 2.97852H461.611V212.713H431.811V72.0382H430.025L428.841 80.8772L409.777 212.713H393.081L374.017 80.8772L372.833 72.0382H371.047V212.713H341.247H341.227Z" fill="white" fill-opacity="0.2"/>
<path d="M522.381 215C513.33 215 505.624 213.001 499.203 209.005C492.801 205.008 487.905 199.589 484.534 192.749C481.162 185.908 479.477 178.203 479.477 169.633V2.97852H511.665V169.633C511.665 173.725 512.508 177.319 514.193 180.412C515.879 183.506 518.608 185.043 522.381 185.043C526.354 185.043 529.144 183.506 530.729 180.412C532.314 177.319 533.117 173.725 533.117 169.633V2.97852H565.305V169.633C565.305 178.183 563.599 185.889 560.168 192.749C556.736 199.589 551.82 205.027 545.418 209.005C539.017 213.001 531.331 215 522.401 215H522.381Z" fill="white" fill-opacity="0.2"/>
<path d="M579.609 212.713V2.97852H609.711L639.511 112.275L642.2 121.979H643.986V2.97852H673.485V212.713H646.374L613.604 103.417L610.915 93.713H609.129V212.713H579.629H579.609Z" fill="white" fill-opacity="0.2"/>
<path d="M691.383 212.713V54.1484H723.571V212.694H691.383V212.713Z" fill="white" fill-opacity="0.2"/>
<path d="M779.299 214.999C770.169 214.999 762.382 213.02 755.981 209.081C749.579 205.142 744.703 199.742 741.372 192.883C738.041 186.042 736.375 178.279 736.375 169.632V46.0587C736.375 37.5079 738.081 29.8025 741.512 22.9427C744.944 16.1021 749.88 10.6641 756.342 6.68657C762.804 2.68979 770.45 0.691406 779.279 0.691406C785.942 0.691406 791.902 1.88275 797.159 4.26545C802.417 6.64814 806.912 9.89552 810.645 14.046C814.377 18.1773 817.227 22.9811 819.214 28.4575C821.2 33.9338 822.184 39.7945 822.184 46.0779V74.9008H792.082V46.0779C792.082 41.6968 791.139 38.0459 789.253 35.0867C787.366 32.1468 784.236 30.6672 779.861 30.6672C775.888 30.6672 772.998 32.1852 771.212 35.2405C769.426 38.2765 768.523 41.9082 768.523 46.0779V169.632C768.523 173.821 769.486 177.433 771.433 180.469C773.379 183.505 776.169 185.043 779.861 185.043C784.336 185.043 787.487 183.563 789.313 180.623C791.159 177.683 792.062 174.013 792.062 169.632V140.809H822.163V169.632C822.163 178.183 820.418 185.888 816.946 192.748C813.474 199.589 808.518 205.027 802.116 209.004C795.715 213.001 788.089 214.999 779.239 214.999H779.299Z" fill="white" fill-opacity="0.2"/>
<path d="M828.297 212.713L861.368 2.97852H900.7L933.771 212.713H902.486L896.526 169.902H865.542L859.582 212.713H828.297ZM870.017 137.37H892.071L882.84 66.8885L881.957 55.7629H880.171L879.268 66.8885L870.037 137.37H870.017Z" fill="white" fill-opacity="0.2"/>
<path d="M951.543 212.713V34.6453H921.141V2.97852H1014.11V34.6453H983.711V212.713H951.523H951.543Z" fill="white" fill-opacity="0.2"/>
<path d="M1023.07 212.713V2.97852H1096.68V34.6453H1055.26V91.1382H1085.06V121.959H1055.26V181.027H1096.68V212.694H1023.07V212.713Z" fill="white" fill-opacity="0.2"/>
<path d="M1155.36 214.999C1148.59 214.999 1142.77 213.981 1137.84 211.925C1132.92 209.888 1128.85 206.987 1125.62 203.22C1122.38 199.473 1119.84 194.996 1117.95 189.808C1116.06 184.62 1114.72 178.855 1113.94 172.476C1113.13 166.096 1112.75 159.352 1112.75 152.223H1144.34C1144.34 158.314 1144.54 164.098 1144.94 169.555C1145.34 175.032 1146.32 179.451 1147.91 182.833C1149.5 186.215 1151.98 187.906 1155.36 187.906C1158.73 187.906 1161.23 186.599 1162.88 183.986C1164.53 181.373 1165.61 178.048 1166.15 173.994C1166.69 169.959 1166.97 165.751 1166.97 161.369C1166.97 149.956 1166.15 141.232 1164.51 135.179C1162.86 129.145 1159.99 124.88 1155.86 122.401C1151.74 119.922 1145.9 118.462 1138.34 117.981V92.3098C1145.88 91.9255 1151.5 90.5996 1155.17 88.313C1158.85 86.0264 1161.28 82.241 1162.48 76.976C1163.66 71.6918 1164.27 64.3516 1164.27 54.9361C1164.27 50.286 1164.08 45.8665 1163.74 41.7352C1163.38 37.6039 1162.52 34.2412 1161.13 31.6856C1159.75 29.1108 1157.4 27.8426 1154.13 27.8426C1151.04 27.8426 1148.71 29.5335 1147.13 32.9154C1145.54 36.2973 1144.48 40.6976 1143.92 46.1163C1143.37 51.535 1143.09 57.338 1143.09 63.5253H1111.51C1111.51 54.3981 1112.15 46.001 1113.45 38.3341C1114.74 30.6864 1116.99 24.0379 1120.16 18.4271C1123.33 12.8162 1127.68 8.47356 1133.2 5.3799C1138.72 2.28625 1145.68 0.749023 1154.13 0.749023C1160.89 0.749023 1166.87 1.95959 1172.09 4.38071C1177.31 6.80183 1181.68 10.1645 1185.2 14.4303C1188.71 18.6961 1191.38 23.6536 1193.16 29.2645C1194.95 34.8753 1195.85 40.8705 1195.85 47.25C1195.85 56.7615 1195.15 65.3508 1193.76 72.9985C1192.38 80.6653 1190.31 87.1217 1187.58 92.4059C1184.85 97.6901 1181.34 101.648 1177.09 104.319C1184.13 109.45 1189.47 116.828 1193.1 126.436C1196.73 136.044 1198.54 146.939 1198.54 159.102C1198.54 168.71 1196.91 177.779 1193.7 186.272C1190.47 194.785 1185.68 201.702 1179.32 207.025C1172.95 212.348 1164.97 215.019 1155.34 215.019L1155.36 214.999Z" fill="white" fill-opacity="0.5"/>
<path d="M1252.54 214.999C1243.31 214.999 1235.56 213.039 1229.3 209.158C1223.04 205.257 1218.34 199.877 1215.21 193.036C1212.08 186.196 1210.52 178.394 1210.52 169.632V51.7656C1210.52 44.1563 1211.28 37.2388 1212.82 31.0131C1214.37 24.7874 1216.8 19.4071 1220.13 14.8915C1223.46 10.3759 1227.79 6.87872 1233.17 4.39995C1238.53 1.92118 1244.99 0.691406 1252.54 0.691406C1260.08 0.691406 1266.66 1.86354 1271.98 4.18859C1277.3 6.51363 1281.61 9.87631 1284.95 14.2382C1288.28 18.6193 1290.71 23.8458 1292.25 29.937C1293.8 36.0283 1294.56 42.8305 1294.56 50.3437V60.6238H1262.37C1262.37 53.8793 1262.17 48.0186 1261.77 43.0803C1261.37 38.142 1260.48 34.2989 1259.08 31.5896C1257.69 28.8802 1255.51 27.5159 1252.52 27.5159C1249.53 27.5159 1247.36 28.6496 1245.95 30.9362C1244.55 33.2229 1243.67 36.2204 1243.27 39.929C1242.86 43.6375 1242.66 47.5959 1242.66 51.7656V84.0088C1244.05 82.2026 1246.26 80.5693 1249.29 79.0897C1252.32 77.6101 1255.97 76.88 1260.24 76.88C1265.5 76.88 1270.26 77.7831 1274.47 79.5893C1278.68 81.3955 1282.3 84.028 1285.27 87.506C1288.24 90.984 1290.52 95.2882 1292.13 100.419C1293.74 105.549 1294.52 111.506 1294.52 118.25V169.613C1294.52 178.452 1292.93 186.292 1289.74 193.075C1286.55 199.877 1281.84 205.219 1275.59 209.119C1269.35 213.02 1261.65 214.961 1252.5 214.961L1252.54 214.999ZM1252.54 188.175C1256.01 188.175 1258.52 186.542 1260.06 183.256C1261.61 179.97 1262.37 176.569 1262.37 173.052V116.271C1262.37 112.851 1261.63 109.661 1260.14 106.702C1258.66 103.762 1256.17 102.283 1252.7 102.283C1249.23 102.283 1246.82 103.743 1245.17 106.625C1243.53 109.527 1242.7 112.832 1242.7 116.54V173.033C1242.7 176.55 1243.43 179.951 1244.87 183.236C1246.32 186.522 1248.86 188.156 1252.54 188.156V188.175Z" fill="white" fill-opacity="0.5"/>
<path d="M707.452 43.1769C719.044 43.1769 728.442 34.1782 728.442 23.0777C728.442 11.9772 719.044 2.97852 707.452 2.97852C695.859 2.97852 686.461 11.9772 686.461 23.0777C686.461 34.1782 695.859 43.1769 707.452 43.1769Z" fill="#E4107E" fill-opacity="0.5"/>
</g>
<defs>
<clipPath id="clip0_2019_861">
<rect width="1392" height="214.308" fill="white" transform="translate(0 0.691406)"/>
</clipPath>
</defs>
</svg>
